# SPDX-FileCopyrightText: Copyright (c) 2026 NVIDIA CORPORATION & AFFILIATES. All rights reserved.
# SPDX-License-Identifier: Apache-2.0
# Simple original z-up chair mesh for examples/ppat_demo.py.

o seat
v -0.75 -0.65 0.85 0.55 0.27 0.08
v  0.75 -0.65 0.85 0.55 0.27 0.08
v  0.75  0.65 0.85 0.55 0.27 0.08
v -0.75  0.65 0.85 0.55 0.27 0.08
v -0.75 -0.65 1.05 0.55 0.27 0.08
v  0.75 -0.65 1.05 0.55 0.27 0.08
v  0.75  0.65 1.05 0.55 0.27 0.08
v -0.75  0.65 1.05 0.55 0.27 0.08
f 1 3 2
f 1 4 3
f 5 6 7
f 5 7 8
f 1 2 6
f 1 6 5
f 2 3 7
f 2 7 6
f 3 4 8
f 3 8 7
f 4 1 5
f 4 5 8

o back
v -0.75 0.50 1.05 0.55 0.27 0.08
v  0.75 0.50 1.05 0.55 0.27 0.08
v  0.75 0.65 1.05 0.55 0.27 0.08
v -0.75 0.65 1.05 0.55 0.27 0.08
v -0.75 0.50 2.15 0.55 0.27 0.08
v  0.75 0.50 2.15 0.55 0.27 0.08
v  0.75 0.65 2.15 0.55 0.27 0.08
v -0.75 0.65 2.15 0.55 0.27 0.08
f 9 11 10
f 9 12 11
f 13 14 15
f 13 15 16
f 9 10 14
f 9 14 13
f 10 11 15
f 10 15 14
f 11 12 16
f 11 16 15
f 12 9 13
f 12 13 16

o front_left_leg
v -0.65 -0.55 0.00 0.55 0.27 0.08
v -0.50 -0.55 0.00 0.55 0.27 0.08
v -0.50 -0.40 0.00 0.55 0.27 0.08
v -0.65 -0.40 0.00 0.55 0.27 0.08
v -0.65 -0.55 0.85 0.55 0.27 0.08
v -0.50 -0.55 0.85 0.55 0.27 0.08
v -0.50 -0.40 0.85 0.55 0.27 0.08
v -0.65 -0.40 0.85 0.55 0.27 0.08
f 17 19 18
f 17 20 19
f 21 22 23
f 21 23 24
f 17 18 22
f 17 22 21
f 18 19 23
f 18 23 22
f 19 20 24
f 19 24 23
f 20 17 21
f 20 21 24

o front_right_leg
v 0.50 -0.55 0.00 0.55 0.27 0.08
v 0.65 -0.55 0.00 0.55 0.27 0.08
v 0.65 -0.40 0.00 0.55 0.27 0.08
v 0.50 -0.40 0.00 0.55 0.27 0.08
v 0.50 -0.55 0.85 0.55 0.27 0.08
v 0.65 -0.55 0.85 0.55 0.27 0.08
v 0.65 -0.40 0.85 0.55 0.27 0.08
v 0.50 -0.40 0.85 0.55 0.27 0.08
f 25 27 26
f 25 28 27
f 29 30 31
f 29 31 32
f 25 26 30
f 25 30 29
f 26 27 31
f 26 31 30
f 27 28 32
f 27 32 31
f 28 25 29
f 28 29 32

o rear_left_leg
v -0.65 0.40 0.00 0.55 0.27 0.08
v -0.50 0.40 0.00 0.55 0.27 0.08
v -0.50 0.55 0.00 0.55 0.27 0.08
v -0.65 0.55 0.00 0.55 0.27 0.08
v -0.65 0.40 0.85 0.55 0.27 0.08
v -0.50 0.40 0.85 0.55 0.27 0.08
v -0.50 0.55 0.85 0.55 0.27 0.08
v -0.65 0.55 0.85 0.55 0.27 0.08
f 33 35 34
f 33 36 35
f 37 38 39
f 37 39 40
f 33 34 38
f 33 38 37
f 34 35 39
f 34 39 38
f 35 36 40
f 35 40 39
f 36 33 37
f 36 37 40

o rear_right_leg
v 0.50 0.40 0.00 0.55 0.27 0.08
v 0.65 0.40 0.00 0.55 0.27 0.08
v 0.65 0.55 0.00 0.55 0.27 0.08
v 0.50 0.55 0.00 0.55 0.27 0.08
v 0.50 0.40 0.85 0.55 0.27 0.08
v 0.65 0.40 0.85 0.55 0.27 0.08
v 0.65 0.55 0.85 0.55 0.27 0.08
v 0.50 0.55 0.85 0.55 0.27 0.08
f 41 43 42
f 41 44 43
f 45 46 47
f 45 47 48
f 41 42 46
f 41 46 45
f 42 43 47
f 42 47 46
f 43 44 48
f 43 48 47
f 44 41 45
f 44 45 48
